<svg width="192" height="192" viewBox="0 0 192 192" fill="none" xmlns="http://www.w3.org/2000/svg">
  <rect width="192" height="192" rx="40" fill="#3b82f6"/>
  <circle cx="96" cy="96" r="48" fill="white" opacity="0.1"/>
  <path d="M96 64C88.268 64 82 70.268 82 78V114C82 121.732 88.268 128 96 128C103.732 128 110 121.732 110 114V78C110 70.268 103.732 64 96 64Z" fill="white"/>
  <path d="M68 102C68 99.791 66.209 98 64 98C61.791 98 60 99.791 60 102V114C60 130.569 73.431 144 90 144H102C118.569 144 132 130.569 132 114V102C132 99.791 130.209 98 128 98C125.791 98 124 99.791 124 102V114C124 126.15 114.15 136 102 136H90C77.85 136 68 126.15 68 114V102Z" fill="white"/>
  <path d="M96 152C98.209 152 100 150.209 100 148V144H92V148C92 150.209 93.791 152 96 152Z" fill="white"/>
</svg>